<svg xmlns="http://www.w3.org/2000/svg" xmlns:xlink="http://www.w3.org/1999/xlink" version="1.2" baseProfile="tiny" x="0px" y="0px" viewBox="0 0 100 125" xml:space="preserve"><path d="M57.472,5.085C47.65,4.413,38.289,7.72,31.122,14.41c-6.779,6.328-10.785,15.167-11.101,24.406l-8.51,12.519  c-1.109,1.632-1.624,3.54-1.49,5.521C10.332,61.422,14.256,65,18.955,65H20v5c0,8.271,6.729,15,15,15h12.062l2.761,10.306  l34.292-9.188l-1.068-3.98c-2.286-8.532-1.182-17.833,3.11-26.191c2.85-5.549,4.156-11.807,3.778-18.097  C88.886,20.373,74.929,6.288,57.472,5.085z M79.485,52.521c-4.601,8.959-6.132,18.87-4.423,28.258l-19.935,5.342l-2.31-8.621H35  c-4.136,0-7.5-3.364-7.5-7.5V57.5h-8.545c-0.744,0-1.409-0.529-1.452-1.154c-0.02-0.293,0.051-0.562,0.21-0.795L27.5,41.154V40  c0-7.706,3.104-14.846,8.74-20.107c5.149-4.807,11.742-7.393,18.743-7.393c0.655,0,1.313,0.023,1.974,0.068  c13.708,0.944,24.668,12.006,25.492,25.731C82.746,43.248,81.721,48.166,79.485,52.521z"/><path d="M55,17.5c-12.426,0-22.5,10.074-22.5,22.5c0,12.426,10.074,22.5,22.5,22.5c12.426,0,22.5-10.074,22.5-22.5  C77.5,27.574,67.426,17.5,55,17.5z M55,57.5c-9.65,0-17.5-7.85-17.5-17.5S45.35,22.5,55,22.5S72.5,30.35,72.5,40S64.65,57.5,55,57.5  z"/><polygon points="57.5,27.5 52.5,27.5 52.5,42.5 65,42.5 65,37.5 57.5,37.5 "/></svg>